<?xml version="1.0" standalone="no"?>
<!DOCTYPE svg PUBLIC "-//W3C//DTD SVG 20010904//EN"
 "http://www.w3.org/TR/2001/REC-SVG-20010904/DTD/svg10.dtd">
<svg version="1.0" xmlns="http://www.w3.org/2000/svg"
 width="16.000000pt" height="16.000000pt" viewBox="0 0 16.000000 16.000000"
 preserveAspectRatio="xMidYMid meet">
<metadata>
Created by potrace 1.11, written by Peter Selinger 2001-2013
</metadata>
<g transform="translate(0.000000,16.000000) scale(0.002286,-0.002286)"
fill="#000000" stroke="none">
<path d="M375 5988 c7 -21 244 -784 287 -923 42 -137 148 -478 173 -555 8 -25
38 -119 66 -210 56 -182 121 -392 198 -635 27 -88 93 -299 146 -470 53 -170
128 -411 167 -535 39 -124 79 -253 89 -287 26 -85 47 -154 118 -378 163 -519
304 -972 308 -992 l5 -22 1566 2 1566 2 32 100 c18 55 53 168 79 250 25 83 50
161 55 175 5 14 23 72 40 130 17 58 33 110 34 115 2 6 4 12 4 15 1 3 11 32 22
65 12 33 34 103 50 155 47 155 145 470 370 1190 56 179 113 360 126 403 28 91
55 175 122 392 28 88 71 228 96 310 26 83 51 161 56 175 5 14 27 84 49 155 68
222 131 426 166 535 18 58 70 224 115 370 45 146 89 285 97 310 8 25 23 73 33
108 l17 62 -1305 -2 -1305 -3 -13 -40 c-25 -81 -96 -311 -219 -715 -70 -228
-136 -444 -147 -480 -11 -36 -28 -90 -38 -120 -9 -30 -35 -112 -56 -182 -21
-71 -40 -128 -43 -128 -3 0 -32 87 -64 193 -118 388 -138 453 -282 922 -89
290 -104 337 -141 463 l-28 92 -1308 0 c-1041 0 -1307 -3 -1303 -12z m2319
-745 c44 -142 99 -323 123 -403 25 -80 62 -201 83 -270 21 -69 72 -235 113
-370 152 -493 349 -1137 368 -1197 27 -88 53 -174 84 -273 14 -47 27 -91 27
-97 1 -7 4 -13 7 -13 5 0 96 286 177 560 26 84 222 724 351 1140 46 151 88
289 93 305 4 17 45 149 90 295 45 146 88 285 95 310 45 154 77 256 84 263 4 4
356 6 783 5 l776 -3 -80 -255 c-43 -140 -108 -349 -144 -465 -36 -115 -90
-289 -120 -385 -30 -96 -75 -238 -99 -315 -24 -77 -66 -214 -95 -305 -28 -91
-56 -181 -61 -200 -6 -19 -13 -42 -16 -50 -3 -8 -7 -19 -8 -25 -2 -10 -56
-180 -120 -385 -19 -58 -66 -208 -105 -335 -78 -253 -130 -417 -215 -689 -31
-99 -58 -186 -60 -195 -2 -9 -32 -105 -66 -213 l-62 -196 -1197 0 -1197 0 -47
151 c-26 84 -67 215 -91 292 -24 77 -69 221 -100 320 -31 99 -78 250 -105 335
-26 85 -69 223 -95 305 -26 83 -51 164 -55 180 -5 17 -49 161 -100 320 -50
160 -109 346 -130 415 -88 283 -194 624 -240 770 -26 85 -90 288 -140 450 -50
162 -105 336 -121 385 -16 50 -29 91 -29 93 0 1 352 2 783 2 l782 0 79 -257z"/>
<path d="M1255 5372 c-1 -2 5 -29 15 -60 50 -163 195 -629 243 -782 30 -96 62
-197 70 -225 8 -27 41 -131 72 -230 31 -99 76 -243 100 -320 24 -77 69 -221
100 -320 31 -99 75 -238 96 -310 22 -71 44 -141 49 -155 5 -14 32 -99 60 -190
28 -91 71 -230 96 -310 25 -80 52 -165 59 -190 8 -25 36 -117 64 -205 27 -88
70 -225 95 -305 l46 -145 252 0 c153 1 252 5 252 11 -2 9 -234 759 -296 954
-16 52 -52 167 -80 255 -27 88 -63 203 -80 255 -16 52 -31 102 -34 110 -2 8
-51 168 -110 355 -58 187 -116 374 -129 415 -38 122 -123 394 -177 565 -28 87
-51 164 -52 170 -1 5 -22 71 -45 145 -58 184 -94 297 -131 415 l-31 100 -250
0 c-138 0 -252 -1 -254 -3z"/>
<path d="M1938 5369 c-6 -4 -8 -11 -4 -17 3 -6 37 -111 75 -234 106 -342 160
-514 271 -868 56 -179 106 -338 110 -355 5 -16 36 -118 70 -225 34 -107 70
-222 80 -255 54 -179 314 -1013 321 -1030 4 -11 38 -117 74 -235 37 -118 87
-282 113 -365 25 -82 50 -152 54 -155 4 -3 182 -6 395 -5 l388 0 31 95 c34
102 61 187 209 665 53 171 153 490 221 710 69 220 145 465 170 545 25 80 53
170 63 200 10 30 29 89 41 130 12 41 37 122 55 180 19 58 54 170 79 250 25 80
70 226 101 325 31 99 88 280 126 403 38 123 71 228 74 233 8 12 24 11 -257 13
l-248 1 -24 -75 c-32 -99 -99 -313 -241 -770 -64 -206 -129 -415 -145 -465
-29 -90 -156 -497 -190 -610 -10 -33 -35 -112 -55 -175 -20 -63 -43 -135 -50
-160 -7 -25 -59 -191 -115 -370 -56 -179 -124 -397 -152 -485 -27 -88 -57
-185 -67 -215 l-18 -55 -16 50 c-15 48 -37 118 -91 292 -13 43 -48 152 -76
243 -28 91 -83 266 -122 390 -38 124 -82 266 -98 315 -73 231 -214 685 -226
725 -7 25 -34 110 -59 190 -50 160 -102 326 -164 525 -110 358 -194 622 -201
635 -7 13 -46 15 -250 15 -133 0 -246 -3 -252 -6z"/>
<path d="M5221 5350 c-10 -27 -70 -216 -76 -240 -4 -14 -104 -336 -231 -740
-31 -96 -61 -195 -69 -220 -7 -25 -50 -162 -95 -305 -45 -143 -83 -267 -85
-275 -2 -8 -56 -181 -120 -385 -141 -449 -281 -896 -370 -1185 -37 -118 -78
-248 -91 -289 -13 -41 -22 -77 -20 -80 3 -4 116 -6 253 -6 l248 0 37 115 c35
110 79 250 189 605 28 88 59 187 70 220 10 33 34 110 53 170 19 61 43 139 54
175 11 36 98 313 192 615 95 303 190 609 212 680 88 284 126 406 248 795 56
179 105 336 109 350 l8 25 -253 0 -254 0 -9 -25z"/>
</g>
</svg>
